<mxfile host="app.diagrams.net" agent="Mozilla/5.0 (Windows NT 10.0; Win64; x64) AppleWebKit/537.36 (KHTML, like Gecko) Chrome/135.0.0.0 Safari/537.36" version="26.2.14">
  <diagram name="Page-1" id="2cc2dc42-3aac-f2a9-1cec-7a8b7cbee084">
    <mxGraphModel dx="4284" dy="1974" grid="1" gridSize="10" guides="1" tooltips="1" connect="1" arrows="1" fold="1" page="1" pageScale="1" pageWidth="1100" pageHeight="850" background="#ffffff" math="0" shadow="0">
      <root>
        <mxCell id="0" />
        <mxCell id="1" parent="0" />
        <mxCell id="7026571954dc6520-1" value="" style="strokeWidth=1;shadow=0;dashed=0;align=center;html=1;shape=mxgraph.mockup.containers.browserWindow;rSize=0;strokeColor=#666666;mainText=,;recursiveResize=0;rounded=0;labelBackgroundColor=none;fontFamily=Verdana;fontSize=12;movable=0;resizable=0;rotatable=0;deletable=0;editable=0;locked=1;connectable=0;" parent="1" vertex="1">
          <mxGeometry x="50" y="40" width="1050" height="820" as="geometry" />
        </mxCell>
        <mxCell id="7026571954dc6520-2" value="Page 1" style="strokeWidth=1;shadow=0;dashed=0;align=center;html=1;shape=mxgraph.mockup.containers.anchor;fontSize=17;fontColor=#666666;align=left;" parent="7026571954dc6520-1" vertex="1">
          <mxGeometry x="60" y="12" width="110" height="26" as="geometry" />
        </mxCell>
        <mxCell id="7026571954dc6520-3" value="https://www.default.com" style="strokeWidth=1;shadow=0;dashed=0;align=center;html=1;shape=mxgraph.mockup.containers.anchor;rSize=0;fontSize=17;fontColor=#666666;align=left;" parent="7026571954dc6520-1" vertex="1">
          <mxGeometry x="130" y="60" width="250" height="26" as="geometry" />
        </mxCell>
        <mxCell id="7026571954dc6520-14" value="Search" style="strokeWidth=1;shadow=0;dashed=0;align=center;html=1;shape=mxgraph.mockup.forms.searchBox;strokeColor=#999999;mainText=;strokeColor2=#008cff;fontColor=#666666;fontSize=17;align=left;spacingLeft=3;rounded=0;labelBackgroundColor=none;" parent="7026571954dc6520-1" vertex="1">
          <mxGeometry x="870" y="270" width="150" height="20" as="geometry" />
        </mxCell>
        <mxCell id="9VzaqzQORasnH1b9LZu_-1" value="Open this select menu" style="html=1;shadow=0;dashed=0;shape=mxgraph.bootstrap.rrect;rSize=5;fillColor=#ffffff;strokeColor=#CED4DA;align=left;spacing=15;fontSize=14;fontColor=#6C767D;" parent="7026571954dc6520-1" vertex="1">
          <mxGeometry x="240" y="265" width="200" height="40" as="geometry" />
        </mxCell>
        <mxCell id="9VzaqzQORasnH1b9LZu_-2" value="" style="shape=triangle;direction=south;fillColor=#343A40;strokeColor=none;perimeter=none;" parent="9VzaqzQORasnH1b9LZu_-1" vertex="1">
          <mxGeometry x="1" y="0.5" width="7" height="3" relative="1" as="geometry">
            <mxPoint x="-17" y="1" as="offset" />
          </mxGeometry>
        </mxCell>
        <mxCell id="9VzaqzQORasnH1b9LZu_-3" value="" style="shape=triangle;direction=north;fillColor=#343A40;strokeColor=none;perimeter=none;" parent="9VzaqzQORasnH1b9LZu_-1" vertex="1">
          <mxGeometry x="1" y="0.5" width="7" height="3" relative="1" as="geometry">
            <mxPoint x="-17" y="-4" as="offset" />
          </mxGeometry>
        </mxCell>
        <mxCell id="9VzaqzQORasnH1b9LZu_-4" value="Open this select menu" style="html=1;shadow=0;dashed=0;shape=mxgraph.bootstrap.rrect;rSize=5;fillColor=#ffffff;strokeColor=#CED4DA;align=left;spacing=15;fontSize=14;fontColor=#6C767D;" parent="7026571954dc6520-1" vertex="1">
          <mxGeometry x="450" y="265" width="200" height="40" as="geometry" />
        </mxCell>
        <mxCell id="9VzaqzQORasnH1b9LZu_-5" value="" style="shape=triangle;direction=south;fillColor=#343A40;strokeColor=none;perimeter=none;" parent="9VzaqzQORasnH1b9LZu_-4" vertex="1">
          <mxGeometry x="1" y="0.5" width="7" height="3" relative="1" as="geometry">
            <mxPoint x="-17" y="1" as="offset" />
          </mxGeometry>
        </mxCell>
        <mxCell id="9VzaqzQORasnH1b9LZu_-6" value="" style="shape=triangle;direction=north;fillColor=#343A40;strokeColor=none;perimeter=none;" parent="9VzaqzQORasnH1b9LZu_-4" vertex="1">
          <mxGeometry x="1" y="0.5" width="7" height="3" relative="1" as="geometry">
            <mxPoint x="-17" y="-4" as="offset" />
          </mxGeometry>
        </mxCell>
        <mxCell id="9VzaqzQORasnH1b9LZu_-7" value="Open this select menu" style="html=1;shadow=0;dashed=0;shape=mxgraph.bootstrap.rrect;rSize=5;fillColor=#ffffff;strokeColor=#CED4DA;align=left;spacing=15;fontSize=14;fontColor=#6C767D;" parent="7026571954dc6520-1" vertex="1">
          <mxGeometry x="660" y="265" width="200" height="40" as="geometry" />
        </mxCell>
        <mxCell id="9VzaqzQORasnH1b9LZu_-8" value="" style="shape=triangle;direction=south;fillColor=#343A40;strokeColor=none;perimeter=none;" parent="9VzaqzQORasnH1b9LZu_-7" vertex="1">
          <mxGeometry x="1" y="0.5" width="7" height="3" relative="1" as="geometry">
            <mxPoint x="-17" y="1" as="offset" />
          </mxGeometry>
        </mxCell>
        <mxCell id="9VzaqzQORasnH1b9LZu_-9" value="" style="shape=triangle;direction=north;fillColor=#343A40;strokeColor=none;perimeter=none;" parent="9VzaqzQORasnH1b9LZu_-7" vertex="1">
          <mxGeometry x="1" y="0.5" width="7" height="3" relative="1" as="geometry">
            <mxPoint x="-17" y="-4" as="offset" />
          </mxGeometry>
        </mxCell>
        <mxCell id="9VzaqzQORasnH1b9LZu_-10" value="marque" style="text;strokeColor=none;fillColor=none;html=1;fontSize=24;fontStyle=1;verticalAlign=middle;align=center;" parent="7026571954dc6520-1" vertex="1">
          <mxGeometry x="40" y="160" width="100" height="40" as="geometry" />
        </mxCell>
        <mxCell id="9VzaqzQORasnH1b9LZu_-11" value="// choisir le metier" style="text;html=1;align=center;verticalAlign=middle;resizable=0;points=[];autosize=1;strokeColor=none;fillColor=none;" parent="1" vertex="1">
          <mxGeometry x="335" y="280" width="120" height="30" as="geometry" />
        </mxCell>
        <mxCell id="9VzaqzQORasnH1b9LZu_-12" value="// choisi le type de statue de l&#39;employer" style="text;html=1;align=center;verticalAlign=middle;whiteSpace=wrap;rounded=0;" parent="1" vertex="1">
          <mxGeometry x="520" y="280" width="160" height="30" as="geometry" />
        </mxCell>
        <mxCell id="9VzaqzQORasnH1b9LZu_-13" value="// nombre d&#39;heure de travaille" style="text;html=1;align=center;verticalAlign=middle;whiteSpace=wrap;rounded=0;" parent="1" vertex="1">
          <mxGeometry x="760" y="280" width="110" height="30" as="geometry" />
        </mxCell>
        <mxCell id="9VzaqzQORasnH1b9LZu_-19" value="" style="shape=table;startSize=0;container=1;collapsible=0;childLayout=tableLayout;fixedRows=1;rowLines=0;fontStyle=0;strokeColor=default;fontSize=16;" parent="1" vertex="1">
          <mxGeometry x="270" y="390" width="700" height="410" as="geometry" />
        </mxCell>
        <mxCell id="9VzaqzQORasnH1b9LZu_-20" value="" style="shape=tableRow;horizontal=0;startSize=0;swimlaneHead=0;swimlaneBody=0;top=0;left=0;bottom=0;right=0;collapsible=0;dropTarget=0;fillColor=none;points=[[0,0.5],[1,0.5]];portConstraint=eastwest;strokeColor=inherit;fontSize=16;" parent="9VzaqzQORasnH1b9LZu_-19" vertex="1">
          <mxGeometry width="700" height="30" as="geometry" />
        </mxCell>
        <mxCell id="9VzaqzQORasnH1b9LZu_-21" value="1" style="shape=partialRectangle;html=1;whiteSpace=wrap;connectable=0;fillColor=none;top=0;left=0;bottom=0;right=0;overflow=hidden;pointerEvents=1;strokeColor=inherit;fontSize=16;" parent="9VzaqzQORasnH1b9LZu_-20" vertex="1">
          <mxGeometry width="155" height="30" as="geometry">
            <mxRectangle width="155" height="30" as="alternateBounds" />
          </mxGeometry>
        </mxCell>
        <mxCell id="9VzaqzQORasnH1b9LZu_-22" value="nom,prenom | metier | nombre d&#39;heure travaille | statue&amp;nbsp;" style="shape=partialRectangle;html=1;whiteSpace=wrap;connectable=0;fillColor=none;top=0;left=0;bottom=0;right=0;align=left;spacingLeft=6;overflow=hidden;strokeColor=inherit;fontSize=16;" parent="9VzaqzQORasnH1b9LZu_-20" vertex="1">
          <mxGeometry x="155" width="545" height="30" as="geometry">
            <mxRectangle width="545" height="30" as="alternateBounds" />
          </mxGeometry>
        </mxCell>
        <mxCell id="9VzaqzQORasnH1b9LZu_-23" value="" style="shape=tableRow;horizontal=0;startSize=0;swimlaneHead=0;swimlaneBody=0;top=0;left=0;bottom=0;right=0;collapsible=0;dropTarget=0;fillColor=none;points=[[0,0.5],[1,0.5]];portConstraint=eastwest;strokeColor=inherit;fontSize=16;" parent="9VzaqzQORasnH1b9LZu_-19" vertex="1">
          <mxGeometry y="30" width="700" height="30" as="geometry" />
        </mxCell>
        <mxCell id="9VzaqzQORasnH1b9LZu_-24" value="2" style="shape=partialRectangle;html=1;whiteSpace=wrap;connectable=0;fillColor=none;top=0;left=0;bottom=0;right=0;overflow=hidden;strokeColor=inherit;fontSize=16;" parent="9VzaqzQORasnH1b9LZu_-23" vertex="1">
          <mxGeometry width="155" height="30" as="geometry">
            <mxRectangle width="155" height="30" as="alternateBounds" />
          </mxGeometry>
        </mxCell>
        <mxCell id="9VzaqzQORasnH1b9LZu_-25" value="nom,prenom | metier | nombre d&#39;heure travaille | statue&amp;nbsp;" style="shape=partialRectangle;html=1;whiteSpace=wrap;connectable=0;fillColor=none;top=0;left=0;bottom=0;right=0;align=left;spacingLeft=6;overflow=hidden;strokeColor=inherit;fontSize=16;" parent="9VzaqzQORasnH1b9LZu_-23" vertex="1">
          <mxGeometry x="155" width="545" height="30" as="geometry">
            <mxRectangle width="545" height="30" as="alternateBounds" />
          </mxGeometry>
        </mxCell>
        <mxCell id="9VzaqzQORasnH1b9LZu_-26" value="" style="shape=tableRow;horizontal=0;startSize=0;swimlaneHead=0;swimlaneBody=0;top=0;left=0;bottom=0;right=0;collapsible=0;dropTarget=0;fillColor=none;points=[[0,0.5],[1,0.5]];portConstraint=eastwest;strokeColor=inherit;fontSize=16;" parent="9VzaqzQORasnH1b9LZu_-19" vertex="1">
          <mxGeometry y="60" width="700" height="30" as="geometry" />
        </mxCell>
        <mxCell id="9VzaqzQORasnH1b9LZu_-27" value="3" style="shape=partialRectangle;html=1;whiteSpace=wrap;connectable=0;fillColor=none;top=0;left=0;bottom=0;right=0;overflow=hidden;strokeColor=inherit;fontSize=16;" parent="9VzaqzQORasnH1b9LZu_-26" vertex="1">
          <mxGeometry width="155" height="30" as="geometry">
            <mxRectangle width="155" height="30" as="alternateBounds" />
          </mxGeometry>
        </mxCell>
        <mxCell id="9VzaqzQORasnH1b9LZu_-28" value="nom,prenom | metier | nombre d&#39;heure travaille | statue&amp;nbsp;" style="shape=partialRectangle;html=1;whiteSpace=wrap;connectable=0;fillColor=none;top=0;left=0;bottom=0;right=0;align=left;spacingLeft=6;overflow=hidden;strokeColor=inherit;fontSize=16;" parent="9VzaqzQORasnH1b9LZu_-26" vertex="1">
          <mxGeometry x="155" width="545" height="30" as="geometry">
            <mxRectangle width="545" height="30" as="alternateBounds" />
          </mxGeometry>
        </mxCell>
        <mxCell id="9VzaqzQORasnH1b9LZu_-131" style="edgeStyle=orthogonalEdgeStyle;rounded=0;orthogonalLoop=1;jettySize=auto;html=1;entryX=0.502;entryY=-0.002;entryDx=0;entryDy=0;entryPerimeter=0;" parent="1" source="9VzaqzQORasnH1b9LZu_-29" target="9VzaqzQORasnH1b9LZu_-102" edge="1">
          <mxGeometry relative="1" as="geometry">
            <mxPoint x="-132" y="-70" as="targetPoint" />
            <Array as="points">
              <mxPoint x="-80" y="375" />
              <mxPoint x="-80" y="-20" />
              <mxPoint x="1697" y="-20" />
            </Array>
          </mxGeometry>
        </mxCell>
        <mxCell id="9VzaqzQORasnH1b9LZu_-29" value="infrastructure" style="strokeWidth=1;shadow=0;dashed=0;align=center;html=1;shape=mxgraph.mockup.buttons.button;strokeColor=#666666;mainText=;buttonStyle=round;fontSize=17;fontStyle=0;fillColor=none;whiteSpace=wrap;rounded=0;labelBackgroundColor=none;" parent="1" vertex="1">
          <mxGeometry x="70" y="320" width="190" height="30" as="geometry" />
        </mxCell>
        <mxCell id="9VzaqzQORasnH1b9LZu_-102" value="" style="strokeWidth=1;shadow=0;dashed=0;align=center;html=1;shape=mxgraph.mockup.containers.browserWindow;rSize=0;strokeColor=#666666;mainText=,;recursiveResize=0;rounded=0;labelBackgroundColor=none;fontFamily=Verdana;fontSize=12;movable=1;resizable=1;rotatable=1;deletable=1;editable=1;locked=0;connectable=1;" parent="1" vertex="1">
          <mxGeometry x="1170" y="60" width="1050" height="820" as="geometry" />
        </mxCell>
        <mxCell id="9VzaqzQORasnH1b9LZu_-103" value="Page 2" style="strokeWidth=1;shadow=0;dashed=0;align=center;html=1;shape=mxgraph.mockup.containers.anchor;fontSize=17;fontColor=#666666;align=left;" parent="9VzaqzQORasnH1b9LZu_-102" vertex="1">
          <mxGeometry x="60" y="12" width="110" height="26" as="geometry" />
        </mxCell>
        <mxCell id="9VzaqzQORasnH1b9LZu_-104" value="https://www.default.com" style="strokeWidth=1;shadow=0;dashed=0;align=center;html=1;shape=mxgraph.mockup.containers.anchor;rSize=0;fontSize=17;fontColor=#666666;align=left;" parent="9VzaqzQORasnH1b9LZu_-102" vertex="1">
          <mxGeometry x="130" y="60" width="250" height="26" as="geometry" />
        </mxCell>
        <mxCell id="9VzaqzQORasnH1b9LZu_-105" value="Search" style="strokeWidth=1;shadow=0;dashed=0;align=center;html=1;shape=mxgraph.mockup.forms.searchBox;strokeColor=#999999;mainText=;strokeColor2=#008cff;fontColor=#666666;fontSize=17;align=left;spacingLeft=3;rounded=0;labelBackgroundColor=none;" parent="9VzaqzQORasnH1b9LZu_-102" vertex="1">
          <mxGeometry x="870" y="270" width="150" height="20" as="geometry" />
        </mxCell>
        <mxCell id="9VzaqzQORasnH1b9LZu_-106" value="Open this select menu" style="html=1;shadow=0;dashed=0;shape=mxgraph.bootstrap.rrect;rSize=5;fillColor=#ffffff;strokeColor=#CED4DA;align=left;spacing=15;fontSize=14;fontColor=#6C767D;" parent="9VzaqzQORasnH1b9LZu_-102" vertex="1">
          <mxGeometry x="240" y="270" width="200" height="40" as="geometry" />
        </mxCell>
        <mxCell id="9VzaqzQORasnH1b9LZu_-107" value="" style="shape=triangle;direction=south;fillColor=#343A40;strokeColor=none;perimeter=none;" parent="9VzaqzQORasnH1b9LZu_-106" vertex="1">
          <mxGeometry x="1" y="0.5" width="7" height="3" relative="1" as="geometry">
            <mxPoint x="-17" y="1" as="offset" />
          </mxGeometry>
        </mxCell>
        <mxCell id="9VzaqzQORasnH1b9LZu_-108" value="" style="shape=triangle;direction=north;fillColor=#343A40;strokeColor=none;perimeter=none;" parent="9VzaqzQORasnH1b9LZu_-106" vertex="1">
          <mxGeometry x="1" y="0.5" width="7" height="3" relative="1" as="geometry">
            <mxPoint x="-17" y="-4" as="offset" />
          </mxGeometry>
        </mxCell>
        <mxCell id="9VzaqzQORasnH1b9LZu_-109" value="Open this select menu" style="html=1;shadow=0;dashed=0;shape=mxgraph.bootstrap.rrect;rSize=5;fillColor=#ffffff;strokeColor=#CED4DA;align=left;spacing=15;fontSize=14;fontColor=#6C767D;" parent="9VzaqzQORasnH1b9LZu_-102" vertex="1">
          <mxGeometry x="450" y="270" width="200" height="40" as="geometry" />
        </mxCell>
        <mxCell id="9VzaqzQORasnH1b9LZu_-110" value="" style="shape=triangle;direction=south;fillColor=#343A40;strokeColor=none;perimeter=none;" parent="9VzaqzQORasnH1b9LZu_-109" vertex="1">
          <mxGeometry x="1" y="0.5" width="7" height="3" relative="1" as="geometry">
            <mxPoint x="-17" y="1" as="offset" />
          </mxGeometry>
        </mxCell>
        <mxCell id="9VzaqzQORasnH1b9LZu_-111" value="" style="shape=triangle;direction=north;fillColor=#343A40;strokeColor=none;perimeter=none;" parent="9VzaqzQORasnH1b9LZu_-109" vertex="1">
          <mxGeometry x="1" y="0.5" width="7" height="3" relative="1" as="geometry">
            <mxPoint x="-17" y="-4" as="offset" />
          </mxGeometry>
        </mxCell>
        <mxCell id="9VzaqzQORasnH1b9LZu_-112" value="Open this select menu" style="html=1;shadow=0;dashed=0;shape=mxgraph.bootstrap.rrect;rSize=5;fillColor=#ffffff;strokeColor=#CED4DA;align=left;spacing=15;fontSize=14;fontColor=#6C767D;" parent="9VzaqzQORasnH1b9LZu_-102" vertex="1">
          <mxGeometry x="660" y="270" width="200" height="40" as="geometry" />
        </mxCell>
        <mxCell id="9VzaqzQORasnH1b9LZu_-113" value="" style="shape=triangle;direction=south;fillColor=#343A40;strokeColor=none;perimeter=none;" parent="9VzaqzQORasnH1b9LZu_-112" vertex="1">
          <mxGeometry x="1" y="0.5" width="7" height="3" relative="1" as="geometry">
            <mxPoint x="-17" y="1" as="offset" />
          </mxGeometry>
        </mxCell>
        <mxCell id="9VzaqzQORasnH1b9LZu_-114" value="" style="shape=triangle;direction=north;fillColor=#343A40;strokeColor=none;perimeter=none;" parent="9VzaqzQORasnH1b9LZu_-112" vertex="1">
          <mxGeometry x="1" y="0.5" width="7" height="3" relative="1" as="geometry">
            <mxPoint x="-17" y="-4" as="offset" />
          </mxGeometry>
        </mxCell>
        <mxCell id="9VzaqzQORasnH1b9LZu_-115" value="marque" style="text;strokeColor=none;fillColor=none;html=1;fontSize=24;fontStyle=1;verticalAlign=middle;align=center;" parent="9VzaqzQORasnH1b9LZu_-102" vertex="1">
          <mxGeometry x="40" y="160" width="100" height="40" as="geometry" />
        </mxCell>
        <mxCell id="9VzaqzQORasnH1b9LZu_-132" style="edgeStyle=orthogonalEdgeStyle;rounded=0;orthogonalLoop=1;jettySize=auto;html=1;" parent="9VzaqzQORasnH1b9LZu_-102" source="9VzaqzQORasnH1b9LZu_-130" edge="1">
          <mxGeometry relative="1" as="geometry">
            <mxPoint x="-70" y="290" as="targetPoint" />
          </mxGeometry>
        </mxCell>
        <mxCell id="9VzaqzQORasnH1b9LZu_-130" value="employer" style="strokeWidth=1;shadow=0;dashed=0;align=center;html=1;shape=mxgraph.mockup.buttons.button;strokeColor=#666666;mainText=;buttonStyle=round;fontSize=17;fontStyle=0;fillColor=none;whiteSpace=wrap;rounded=0;labelBackgroundColor=none;" parent="9VzaqzQORasnH1b9LZu_-102" vertex="1">
          <mxGeometry x="20" y="275" width="190" height="30" as="geometry" />
        </mxCell>
        <mxCell id="9VzaqzQORasnH1b9LZu_-129" value="infrastructure" style="strokeWidth=1;shadow=0;dashed=0;align=center;html=1;shape=mxgraph.mockup.buttons.button;strokeColor=#666666;mainText=;buttonStyle=round;fontSize=17;fontStyle=0;fillColor=none;whiteSpace=wrap;rounded=0;labelBackgroundColor=none;" parent="9VzaqzQORasnH1b9LZu_-102" vertex="1">
          <mxGeometry x="20" y="330" width="190" height="30" as="geometry" />
        </mxCell>
        <mxCell id="9VzaqzQORasnH1b9LZu_-118" value="// l&#39;état des machine&amp;nbsp;" style="text;html=1;align=center;verticalAlign=middle;whiteSpace=wrap;rounded=0;" parent="9VzaqzQORasnH1b9LZu_-102" vertex="1">
          <mxGeometry x="705" y="245" width="110" height="30" as="geometry" />
        </mxCell>
        <mxCell id="9VzaqzQORasnH1b9LZu_-117" value="// choisi le type d&#39;infrastructure&amp;nbsp;" style="text;html=1;align=center;verticalAlign=middle;whiteSpace=wrap;rounded=0;" parent="9VzaqzQORasnH1b9LZu_-102" vertex="1">
          <mxGeometry x="470" y="240" width="160" height="30" as="geometry" />
        </mxCell>
        <mxCell id="9VzaqzQORasnH1b9LZu_-116" value="// choisir le batiment" style="text;html=1;align=center;verticalAlign=middle;resizable=0;points=[];autosize=1;strokeColor=none;fillColor=none;" parent="9VzaqzQORasnH1b9LZu_-102" vertex="1">
          <mxGeometry x="275" y="240" width="130" height="30" as="geometry" />
        </mxCell>
        <mxCell id="9VzaqzQORasnH1b9LZu_-138" value="suivi des passagers" style="strokeWidth=1;shadow=0;dashed=0;align=center;html=1;shape=mxgraph.mockup.buttons.button;strokeColor=#666666;mainText=;buttonStyle=round;fontSize=17;fontStyle=0;fillColor=none;whiteSpace=wrap;rounded=0;labelBackgroundColor=none;" parent="9VzaqzQORasnH1b9LZu_-102" vertex="1">
          <mxGeometry x="20" y="450" width="190" height="30" as="geometry" />
        </mxCell>
        <mxCell id="9VzaqzQORasnH1b9LZu_-253" value="rapports activité +état des vols" style="strokeWidth=1;shadow=0;dashed=0;align=center;html=1;shape=mxgraph.mockup.buttons.button;strokeColor=#666666;mainText=;buttonStyle=round;fontSize=17;fontStyle=0;fillColor=none;whiteSpace=wrap;rounded=0;labelBackgroundColor=none;" parent="9VzaqzQORasnH1b9LZu_-102" vertex="1">
          <mxGeometry x="20" y="390" width="190" height="30" as="geometry" />
        </mxCell>
        <mxCell id="9VzaqzQORasnH1b9LZu_-332" value="vols en temps réel" style="strokeWidth=1;shadow=0;dashed=0;align=center;html=1;shape=mxgraph.mockup.buttons.button;strokeColor=#666666;mainText=;buttonStyle=round;fontSize=17;fontStyle=0;fillColor=none;whiteSpace=wrap;rounded=0;labelBackgroundColor=none;" parent="9VzaqzQORasnH1b9LZu_-102" vertex="1">
          <mxGeometry x="20" y="510" width="190" height="30" as="geometry" />
        </mxCell>
        <mxCell id="9VzaqzQORasnH1b9LZu_-119" value="" style="shape=table;startSize=0;container=1;collapsible=0;childLayout=tableLayout;fixedRows=1;rowLines=0;fontStyle=0;strokeColor=default;fontSize=16;" parent="1" vertex="1">
          <mxGeometry x="1410" y="390" width="700" height="410" as="geometry" />
        </mxCell>
        <mxCell id="9VzaqzQORasnH1b9LZu_-120" value="" style="shape=tableRow;horizontal=0;startSize=0;swimlaneHead=0;swimlaneBody=0;top=0;left=0;bottom=0;right=0;collapsible=0;dropTarget=0;fillColor=none;points=[[0,0.5],[1,0.5]];portConstraint=eastwest;strokeColor=inherit;fontSize=16;" parent="9VzaqzQORasnH1b9LZu_-119" vertex="1">
          <mxGeometry width="700" height="30" as="geometry" />
        </mxCell>
        <mxCell id="9VzaqzQORasnH1b9LZu_-121" value="1" style="shape=partialRectangle;html=1;whiteSpace=wrap;connectable=0;fillColor=none;top=0;left=0;bottom=0;right=0;overflow=hidden;pointerEvents=1;strokeColor=inherit;fontSize=16;" parent="9VzaqzQORasnH1b9LZu_-120" vertex="1">
          <mxGeometry width="155" height="30" as="geometry">
            <mxRectangle width="155" height="30" as="alternateBounds" />
          </mxGeometry>
        </mxCell>
        <mxCell id="9VzaqzQORasnH1b9LZu_-122" value="batiment | type infra | machine&amp;nbsp;" style="shape=partialRectangle;html=1;whiteSpace=wrap;connectable=0;fillColor=none;top=0;left=0;bottom=0;right=0;align=left;spacingLeft=6;overflow=hidden;strokeColor=inherit;fontSize=16;" parent="9VzaqzQORasnH1b9LZu_-120" vertex="1">
          <mxGeometry x="155" width="545" height="30" as="geometry">
            <mxRectangle width="545" height="30" as="alternateBounds" />
          </mxGeometry>
        </mxCell>
        <mxCell id="9VzaqzQORasnH1b9LZu_-123" value="" style="shape=tableRow;horizontal=0;startSize=0;swimlaneHead=0;swimlaneBody=0;top=0;left=0;bottom=0;right=0;collapsible=0;dropTarget=0;fillColor=none;points=[[0,0.5],[1,0.5]];portConstraint=eastwest;strokeColor=inherit;fontSize=16;" parent="9VzaqzQORasnH1b9LZu_-119" vertex="1">
          <mxGeometry y="30" width="700" height="30" as="geometry" />
        </mxCell>
        <mxCell id="9VzaqzQORasnH1b9LZu_-124" value="2" style="shape=partialRectangle;html=1;whiteSpace=wrap;connectable=0;fillColor=none;top=0;left=0;bottom=0;right=0;overflow=hidden;strokeColor=inherit;fontSize=16;" parent="9VzaqzQORasnH1b9LZu_-123" vertex="1">
          <mxGeometry width="155" height="30" as="geometry">
            <mxRectangle width="155" height="30" as="alternateBounds" />
          </mxGeometry>
        </mxCell>
        <mxCell id="9VzaqzQORasnH1b9LZu_-125" value="Value 2 | ..." style="shape=partialRectangle;html=1;whiteSpace=wrap;connectable=0;fillColor=none;top=0;left=0;bottom=0;right=0;align=left;spacingLeft=6;overflow=hidden;strokeColor=inherit;fontSize=16;" parent="9VzaqzQORasnH1b9LZu_-123" vertex="1">
          <mxGeometry x="155" width="545" height="30" as="geometry">
            <mxRectangle width="545" height="30" as="alternateBounds" />
          </mxGeometry>
        </mxCell>
        <mxCell id="9VzaqzQORasnH1b9LZu_-126" value="" style="shape=tableRow;horizontal=0;startSize=0;swimlaneHead=0;swimlaneBody=0;top=0;left=0;bottom=0;right=0;collapsible=0;dropTarget=0;fillColor=none;points=[[0,0.5],[1,0.5]];portConstraint=eastwest;strokeColor=inherit;fontSize=16;" parent="9VzaqzQORasnH1b9LZu_-119" vertex="1">
          <mxGeometry y="60" width="700" height="30" as="geometry" />
        </mxCell>
        <mxCell id="9VzaqzQORasnH1b9LZu_-127" value="3" style="shape=partialRectangle;html=1;whiteSpace=wrap;connectable=0;fillColor=none;top=0;left=0;bottom=0;right=0;overflow=hidden;strokeColor=inherit;fontSize=16;" parent="9VzaqzQORasnH1b9LZu_-126" vertex="1">
          <mxGeometry width="155" height="30" as="geometry">
            <mxRectangle width="155" height="30" as="alternateBounds" />
          </mxGeometry>
        </mxCell>
        <mxCell id="9VzaqzQORasnH1b9LZu_-128" value="Value 3 | ..." style="shape=partialRectangle;html=1;whiteSpace=wrap;connectable=0;fillColor=none;top=0;left=0;bottom=0;right=0;align=left;spacingLeft=6;overflow=hidden;strokeColor=inherit;fontSize=16;" parent="9VzaqzQORasnH1b9LZu_-126" vertex="1">
          <mxGeometry x="155" width="545" height="30" as="geometry">
            <mxRectangle width="545" height="30" as="alternateBounds" />
          </mxGeometry>
        </mxCell>
        <mxCell id="9VzaqzQORasnH1b9LZu_-133" value="rapports activité +état des vols" style="strokeWidth=1;shadow=0;dashed=0;align=center;html=1;shape=mxgraph.mockup.buttons.button;strokeColor=#666666;mainText=;buttonStyle=round;fontSize=17;fontStyle=0;fillColor=none;whiteSpace=wrap;rounded=0;labelBackgroundColor=none;" parent="1" vertex="1">
          <mxGeometry x="70" y="390" width="190" height="30" as="geometry" />
        </mxCell>
        <mxCell id="9VzaqzQORasnH1b9LZu_-137" value="suivi des passagers" style="strokeWidth=1;shadow=0;dashed=0;align=center;html=1;shape=mxgraph.mockup.buttons.button;strokeColor=#666666;mainText=;buttonStyle=round;fontSize=17;fontStyle=0;fillColor=none;whiteSpace=wrap;rounded=0;labelBackgroundColor=none;" parent="1" vertex="1">
          <mxGeometry x="70" y="450" width="190" height="30" as="geometry" />
        </mxCell>
        <mxCell id="9VzaqzQORasnH1b9LZu_-181" value="" style="strokeWidth=1;shadow=0;dashed=0;align=center;html=1;shape=mxgraph.mockup.containers.browserWindow;rSize=0;strokeColor=#666666;mainText=,;recursiveResize=0;rounded=0;labelBackgroundColor=none;fontFamily=Verdana;fontSize=12;movable=1;resizable=1;rotatable=1;deletable=1;editable=1;locked=0;connectable=1;" parent="1" vertex="1">
          <mxGeometry x="-1230" y="40" width="1050" height="820" as="geometry" />
        </mxCell>
        <mxCell id="9VzaqzQORasnH1b9LZu_-182" value="Page 3" style="strokeWidth=1;shadow=0;dashed=0;align=center;html=1;shape=mxgraph.mockup.containers.anchor;fontSize=17;fontColor=#666666;align=left;" parent="9VzaqzQORasnH1b9LZu_-181" vertex="1">
          <mxGeometry x="60" y="12" width="110" height="26" as="geometry" />
        </mxCell>
        <mxCell id="9VzaqzQORasnH1b9LZu_-183" value="https://www.default.com" style="strokeWidth=1;shadow=0;dashed=0;align=center;html=1;shape=mxgraph.mockup.containers.anchor;rSize=0;fontSize=17;fontColor=#666666;align=left;" parent="9VzaqzQORasnH1b9LZu_-181" vertex="1">
          <mxGeometry x="130" y="60" width="250" height="26" as="geometry" />
        </mxCell>
        <mxCell id="9VzaqzQORasnH1b9LZu_-184" value="Search" style="strokeWidth=1;shadow=0;dashed=0;align=center;html=1;shape=mxgraph.mockup.forms.searchBox;strokeColor=#999999;mainText=;strokeColor2=#008cff;fontColor=#666666;fontSize=17;align=left;spacingLeft=3;rounded=0;labelBackgroundColor=none;" parent="9VzaqzQORasnH1b9LZu_-181" vertex="1">
          <mxGeometry x="810" y="290" width="150" height="20" as="geometry" />
        </mxCell>
        <mxCell id="9VzaqzQORasnH1b9LZu_-185" value="Open this select menu" style="html=1;shadow=0;dashed=0;shape=mxgraph.bootstrap.rrect;rSize=5;fillColor=#ffffff;strokeColor=#CED4DA;align=left;spacing=15;fontSize=14;fontColor=#6C767D;" parent="9VzaqzQORasnH1b9LZu_-181" vertex="1">
          <mxGeometry x="240" y="270" width="200" height="40" as="geometry" />
        </mxCell>
        <mxCell id="9VzaqzQORasnH1b9LZu_-186" value="" style="shape=triangle;direction=south;fillColor=#343A40;strokeColor=none;perimeter=none;" parent="9VzaqzQORasnH1b9LZu_-185" vertex="1">
          <mxGeometry x="1" y="0.5" width="7" height="3" relative="1" as="geometry">
            <mxPoint x="-17" y="1" as="offset" />
          </mxGeometry>
        </mxCell>
        <mxCell id="9VzaqzQORasnH1b9LZu_-187" value="" style="shape=triangle;direction=north;fillColor=#343A40;strokeColor=none;perimeter=none;" parent="9VzaqzQORasnH1b9LZu_-185" vertex="1">
          <mxGeometry x="1" y="0.5" width="7" height="3" relative="1" as="geometry">
            <mxPoint x="-17" y="-4" as="offset" />
          </mxGeometry>
        </mxCell>
        <mxCell id="9VzaqzQORasnH1b9LZu_-194" value="marque" style="text;strokeColor=none;fillColor=none;html=1;fontSize=24;fontStyle=1;verticalAlign=middle;align=center;" parent="9VzaqzQORasnH1b9LZu_-181" vertex="1">
          <mxGeometry x="40" y="160" width="100" height="40" as="geometry" />
        </mxCell>
        <mxCell id="9VzaqzQORasnH1b9LZu_-197" value="infrastructure" style="strokeWidth=1;shadow=0;dashed=0;align=center;html=1;shape=mxgraph.mockup.buttons.button;strokeColor=#666666;mainText=;buttonStyle=round;fontSize=17;fontStyle=0;fillColor=none;whiteSpace=wrap;rounded=0;labelBackgroundColor=none;" parent="9VzaqzQORasnH1b9LZu_-181" vertex="1">
          <mxGeometry x="20" y="330" width="190" height="30" as="geometry" />
        </mxCell>
        <mxCell id="9VzaqzQORasnH1b9LZu_-200" value="//destination" style="text;html=1;align=center;verticalAlign=middle;resizable=0;points=[];autosize=1;strokeColor=none;fillColor=none;" parent="9VzaqzQORasnH1b9LZu_-181" vertex="1">
          <mxGeometry x="295" y="240" width="90" height="30" as="geometry" />
        </mxCell>
        <mxCell id="9VzaqzQORasnH1b9LZu_-203" value="suivi des passagers" style="strokeWidth=1;shadow=0;dashed=0;align=center;html=1;shape=mxgraph.mockup.buttons.button;strokeColor=#666666;mainText=;buttonStyle=round;fontSize=17;fontStyle=0;fillColor=none;whiteSpace=wrap;rounded=0;labelBackgroundColor=none;" parent="9VzaqzQORasnH1b9LZu_-181" vertex="1">
          <mxGeometry x="20" y="395" width="190" height="30" as="geometry" />
        </mxCell>
        <mxCell id="9VzaqzQORasnH1b9LZu_-196" value="employer" style="strokeWidth=1;shadow=0;dashed=0;align=center;html=1;shape=mxgraph.mockup.buttons.button;strokeColor=#666666;mainText=;buttonStyle=round;fontSize=17;fontStyle=0;fillColor=none;whiteSpace=wrap;rounded=0;labelBackgroundColor=none;" parent="9VzaqzQORasnH1b9LZu_-181" vertex="1">
          <mxGeometry x="20" y="270" width="190" height="30" as="geometry" />
        </mxCell>
        <mxCell id="9VzaqzQORasnH1b9LZu_-207" value="" style="shape=table;startSize=0;container=1;collapsible=0;childLayout=tableLayout;fixedRows=1;rowLines=0;fontStyle=0;strokeColor=default;fontSize=16;" parent="9VzaqzQORasnH1b9LZu_-181" vertex="1">
          <mxGeometry x="260" y="330" width="700" height="410" as="geometry" />
        </mxCell>
        <mxCell id="9VzaqzQORasnH1b9LZu_-208" value="" style="shape=tableRow;horizontal=0;startSize=0;swimlaneHead=0;swimlaneBody=0;top=0;left=0;bottom=0;right=0;collapsible=0;dropTarget=0;fillColor=none;points=[[0,0.5],[1,0.5]];portConstraint=eastwest;strokeColor=inherit;fontSize=16;" parent="9VzaqzQORasnH1b9LZu_-207" vertex="1">
          <mxGeometry width="700" height="30" as="geometry" />
        </mxCell>
        <mxCell id="9VzaqzQORasnH1b9LZu_-209" value="1" style="shape=partialRectangle;html=1;whiteSpace=wrap;connectable=0;fillColor=none;top=0;left=0;bottom=0;right=0;overflow=hidden;pointerEvents=1;strokeColor=inherit;fontSize=16;" parent="9VzaqzQORasnH1b9LZu_-208" vertex="1">
          <mxGeometry width="155" height="30" as="geometry">
            <mxRectangle width="155" height="30" as="alternateBounds" />
          </mxGeometry>
        </mxCell>
        <mxCell id="9VzaqzQORasnH1b9LZu_-210" value="destination | nombre de vols | taux ponctualité | état du vol" style="shape=partialRectangle;html=1;whiteSpace=wrap;connectable=0;fillColor=none;top=0;left=0;bottom=0;right=0;align=left;spacingLeft=6;overflow=hidden;strokeColor=inherit;fontSize=16;" parent="9VzaqzQORasnH1b9LZu_-208" vertex="1">
          <mxGeometry x="155" width="545" height="30" as="geometry">
            <mxRectangle width="545" height="30" as="alternateBounds" />
          </mxGeometry>
        </mxCell>
        <mxCell id="9VzaqzQORasnH1b9LZu_-211" value="" style="shape=tableRow;horizontal=0;startSize=0;swimlaneHead=0;swimlaneBody=0;top=0;left=0;bottom=0;right=0;collapsible=0;dropTarget=0;fillColor=none;points=[[0,0.5],[1,0.5]];portConstraint=eastwest;strokeColor=inherit;fontSize=16;" parent="9VzaqzQORasnH1b9LZu_-207" vertex="1">
          <mxGeometry y="30" width="700" height="30" as="geometry" />
        </mxCell>
        <mxCell id="9VzaqzQORasnH1b9LZu_-212" value="2" style="shape=partialRectangle;html=1;whiteSpace=wrap;connectable=0;fillColor=none;top=0;left=0;bottom=0;right=0;overflow=hidden;strokeColor=inherit;fontSize=16;" parent="9VzaqzQORasnH1b9LZu_-211" vertex="1">
          <mxGeometry width="155" height="30" as="geometry">
            <mxRectangle width="155" height="30" as="alternateBounds" />
          </mxGeometry>
        </mxCell>
        <mxCell id="9VzaqzQORasnH1b9LZu_-213" value="destination | nombre de vols | taux ponctualité ...." style="shape=partialRectangle;html=1;whiteSpace=wrap;connectable=0;fillColor=none;top=0;left=0;bottom=0;right=0;align=left;spacingLeft=6;overflow=hidden;strokeColor=inherit;fontSize=16;" parent="9VzaqzQORasnH1b9LZu_-211" vertex="1">
          <mxGeometry x="155" width="545" height="30" as="geometry">
            <mxRectangle width="545" height="30" as="alternateBounds" />
          </mxGeometry>
        </mxCell>
        <mxCell id="9VzaqzQORasnH1b9LZu_-214" value="" style="shape=tableRow;horizontal=0;startSize=0;swimlaneHead=0;swimlaneBody=0;top=0;left=0;bottom=0;right=0;collapsible=0;dropTarget=0;fillColor=none;points=[[0,0.5],[1,0.5]];portConstraint=eastwest;strokeColor=inherit;fontSize=16;" parent="9VzaqzQORasnH1b9LZu_-207" vertex="1">
          <mxGeometry y="60" width="700" height="30" as="geometry" />
        </mxCell>
        <mxCell id="9VzaqzQORasnH1b9LZu_-215" value="3" style="shape=partialRectangle;html=1;whiteSpace=wrap;connectable=0;fillColor=none;top=0;left=0;bottom=0;right=0;overflow=hidden;strokeColor=inherit;fontSize=16;" parent="9VzaqzQORasnH1b9LZu_-214" vertex="1">
          <mxGeometry width="155" height="30" as="geometry">
            <mxRectangle width="155" height="30" as="alternateBounds" />
          </mxGeometry>
        </mxCell>
        <mxCell id="9VzaqzQORasnH1b9LZu_-216" value="destination | nombre de vols | taux ponctualité ...." style="shape=partialRectangle;html=1;whiteSpace=wrap;connectable=0;fillColor=none;top=0;left=0;bottom=0;right=0;align=left;spacingLeft=6;overflow=hidden;strokeColor=inherit;fontSize=16;" parent="9VzaqzQORasnH1b9LZu_-214" vertex="1">
          <mxGeometry x="155" width="545" height="30" as="geometry">
            <mxRectangle width="545" height="30" as="alternateBounds" />
          </mxGeometry>
        </mxCell>
        <mxCell id="9VzaqzQORasnH1b9LZu_-251" value="faire rapports" style="strokeWidth=1;shadow=0;dashed=0;align=center;html=1;shape=mxgraph.mockup.buttons.button;strokeColor=#666666;mainText=;buttonStyle=round;fontSize=17;fontStyle=0;fillColor=none;whiteSpace=wrap;rounded=0;labelBackgroundColor=none;" parent="9VzaqzQORasnH1b9LZu_-181" vertex="1">
          <mxGeometry x="770" y="770" width="190" height="30" as="geometry" />
        </mxCell>
        <mxCell id="9VzaqzQORasnH1b9LZu_-258" value="Open this select menu" style="html=1;shadow=0;dashed=0;shape=mxgraph.bootstrap.rrect;rSize=5;fillColor=#ffffff;strokeColor=#CED4DA;align=left;spacing=15;fontSize=14;fontColor=#6C767D;" parent="9VzaqzQORasnH1b9LZu_-181" vertex="1">
          <mxGeometry x="460" y="270" width="200" height="40" as="geometry" />
        </mxCell>
        <mxCell id="9VzaqzQORasnH1b9LZu_-259" value="" style="shape=triangle;direction=south;fillColor=#343A40;strokeColor=none;perimeter=none;" parent="9VzaqzQORasnH1b9LZu_-258" vertex="1">
          <mxGeometry x="1" y="0.5" width="7" height="3" relative="1" as="geometry">
            <mxPoint x="-17" y="1" as="offset" />
          </mxGeometry>
        </mxCell>
        <mxCell id="9VzaqzQORasnH1b9LZu_-260" value="" style="shape=triangle;direction=north;fillColor=#343A40;strokeColor=none;perimeter=none;" parent="9VzaqzQORasnH1b9LZu_-258" vertex="1">
          <mxGeometry x="1" y="0.5" width="7" height="3" relative="1" as="geometry">
            <mxPoint x="-17" y="-4" as="offset" />
          </mxGeometry>
        </mxCell>
        <mxCell id="9VzaqzQORasnH1b9LZu_-261" value="état vols" style="text;html=1;align=center;verticalAlign=middle;resizable=0;points=[];autosize=1;strokeColor=none;fillColor=none;" parent="9VzaqzQORasnH1b9LZu_-181" vertex="1">
          <mxGeometry x="525" y="240" width="70" height="30" as="geometry" />
        </mxCell>
        <mxCell id="9VzaqzQORasnH1b9LZu_-331" value="vols en temps réel" style="strokeWidth=1;shadow=0;dashed=0;align=center;html=1;shape=mxgraph.mockup.buttons.button;strokeColor=#666666;mainText=;buttonStyle=round;fontSize=17;fontStyle=0;fillColor=none;whiteSpace=wrap;rounded=0;labelBackgroundColor=none;" parent="9VzaqzQORasnH1b9LZu_-181" vertex="1">
          <mxGeometry x="20" y="450" width="190" height="30" as="geometry" />
        </mxCell>
        <mxCell id="9VzaqzQORasnH1b9LZu_-206" style="edgeStyle=orthogonalEdgeStyle;rounded=0;orthogonalLoop=1;jettySize=auto;html=1;entryX=1.002;entryY=0.467;entryDx=0;entryDy=0;entryPerimeter=0;" parent="1" source="9VzaqzQORasnH1b9LZu_-133" target="9VzaqzQORasnH1b9LZu_-181" edge="1">
          <mxGeometry relative="1" as="geometry" />
        </mxCell>
        <mxCell id="9VzaqzQORasnH1b9LZu_-217" value="" style="strokeWidth=1;shadow=0;dashed=0;align=center;html=1;shape=mxgraph.mockup.containers.browserWindow;rSize=0;strokeColor=#666666;mainText=,;recursiveResize=0;rounded=0;labelBackgroundColor=none;fontFamily=Verdana;fontSize=12;movable=1;resizable=1;rotatable=1;deletable=1;editable=1;locked=0;connectable=1;" parent="1" vertex="1">
          <mxGeometry x="-1230" y="970" width="1050" height="820" as="geometry" />
        </mxCell>
        <mxCell id="9VzaqzQORasnH1b9LZu_-218" value="Page 4" style="strokeWidth=1;shadow=0;dashed=0;align=center;html=1;shape=mxgraph.mockup.containers.anchor;fontSize=17;fontColor=#666666;align=left;" parent="9VzaqzQORasnH1b9LZu_-217" vertex="1">
          <mxGeometry x="60" y="12" width="110" height="26" as="geometry" />
        </mxCell>
        <mxCell id="9VzaqzQORasnH1b9LZu_-219" value="https://www.default.com" style="strokeWidth=1;shadow=0;dashed=0;align=center;html=1;shape=mxgraph.mockup.containers.anchor;rSize=0;fontSize=17;fontColor=#666666;align=left;" parent="9VzaqzQORasnH1b9LZu_-217" vertex="1">
          <mxGeometry x="130" y="60" width="250" height="26" as="geometry" />
        </mxCell>
        <mxCell id="9VzaqzQORasnH1b9LZu_-220" value="Search" style="strokeWidth=1;shadow=0;dashed=0;align=center;html=1;shape=mxgraph.mockup.forms.searchBox;strokeColor=#999999;mainText=;strokeColor2=#008cff;fontColor=#666666;fontSize=17;align=left;spacingLeft=3;rounded=0;labelBackgroundColor=none;" parent="9VzaqzQORasnH1b9LZu_-217" vertex="1">
          <mxGeometry x="880" y="280" width="150" height="20" as="geometry" />
        </mxCell>
        <mxCell id="9VzaqzQORasnH1b9LZu_-221" value="Open this select menu" style="html=1;shadow=0;dashed=0;shape=mxgraph.bootstrap.rrect;rSize=5;fillColor=#ffffff;strokeColor=#CED4DA;align=left;spacing=15;fontSize=14;fontColor=#6C767D;" parent="9VzaqzQORasnH1b9LZu_-217" vertex="1">
          <mxGeometry x="240" y="270" width="200" height="40" as="geometry" />
        </mxCell>
        <mxCell id="9VzaqzQORasnH1b9LZu_-222" value="" style="shape=triangle;direction=south;fillColor=#343A40;strokeColor=none;perimeter=none;" parent="9VzaqzQORasnH1b9LZu_-221" vertex="1">
          <mxGeometry x="1" y="0.5" width="7" height="3" relative="1" as="geometry">
            <mxPoint x="-17" y="1" as="offset" />
          </mxGeometry>
        </mxCell>
        <mxCell id="9VzaqzQORasnH1b9LZu_-223" value="" style="shape=triangle;direction=north;fillColor=#343A40;strokeColor=none;perimeter=none;" parent="9VzaqzQORasnH1b9LZu_-221" vertex="1">
          <mxGeometry x="1" y="0.5" width="7" height="3" relative="1" as="geometry">
            <mxPoint x="-17" y="-4" as="offset" />
          </mxGeometry>
        </mxCell>
        <mxCell id="9VzaqzQORasnH1b9LZu_-224" value="Open this select menu" style="html=1;shadow=0;dashed=0;shape=mxgraph.bootstrap.rrect;rSize=5;fillColor=#ffffff;strokeColor=#CED4DA;align=left;spacing=15;fontSize=14;fontColor=#6C767D;" parent="9VzaqzQORasnH1b9LZu_-217" vertex="1">
          <mxGeometry x="450" y="270" width="200" height="40" as="geometry" />
        </mxCell>
        <mxCell id="9VzaqzQORasnH1b9LZu_-225" value="" style="shape=triangle;direction=south;fillColor=#343A40;strokeColor=none;perimeter=none;" parent="9VzaqzQORasnH1b9LZu_-224" vertex="1">
          <mxGeometry x="1" y="0.5" width="7" height="3" relative="1" as="geometry">
            <mxPoint x="-17" y="1" as="offset" />
          </mxGeometry>
        </mxCell>
        <mxCell id="9VzaqzQORasnH1b9LZu_-226" value="" style="shape=triangle;direction=north;fillColor=#343A40;strokeColor=none;perimeter=none;" parent="9VzaqzQORasnH1b9LZu_-224" vertex="1">
          <mxGeometry x="1" y="0.5" width="7" height="3" relative="1" as="geometry">
            <mxPoint x="-17" y="-4" as="offset" />
          </mxGeometry>
        </mxCell>
        <mxCell id="9VzaqzQORasnH1b9LZu_-230" value="marque" style="text;strokeColor=none;fillColor=none;html=1;fontSize=24;fontStyle=1;verticalAlign=middle;align=center;" parent="9VzaqzQORasnH1b9LZu_-217" vertex="1">
          <mxGeometry x="40" y="160" width="100" height="40" as="geometry" />
        </mxCell>
        <mxCell id="9VzaqzQORasnH1b9LZu_-233" value="infrastructure" style="strokeWidth=1;shadow=0;dashed=0;align=center;html=1;shape=mxgraph.mockup.buttons.button;strokeColor=#666666;mainText=;buttonStyle=round;fontSize=17;fontStyle=0;fillColor=none;whiteSpace=wrap;rounded=0;labelBackgroundColor=none;" parent="9VzaqzQORasnH1b9LZu_-217" vertex="1">
          <mxGeometry x="20" y="330" width="190" height="30" as="geometry" />
        </mxCell>
        <mxCell id="9VzaqzQORasnH1b9LZu_-235" value="destination de depart&amp;nbsp;" style="text;html=1;align=center;verticalAlign=middle;whiteSpace=wrap;rounded=0;" parent="9VzaqzQORasnH1b9LZu_-217" vertex="1">
          <mxGeometry x="470" y="240" width="160" height="30" as="geometry" />
        </mxCell>
        <mxCell id="9VzaqzQORasnH1b9LZu_-236" value="numéro passager" style="text;html=1;align=center;verticalAlign=middle;resizable=0;points=[];autosize=1;strokeColor=none;fillColor=none;" parent="9VzaqzQORasnH1b9LZu_-217" vertex="1">
          <mxGeometry x="280" y="240" width="120" height="30" as="geometry" />
        </mxCell>
        <mxCell id="9VzaqzQORasnH1b9LZu_-237" value="rapports activité" style="strokeWidth=1;shadow=0;dashed=0;align=center;html=1;shape=mxgraph.mockup.buttons.button;strokeColor=#666666;mainText=;buttonStyle=round;fontSize=17;fontStyle=0;fillColor=none;whiteSpace=wrap;rounded=0;labelBackgroundColor=none;" parent="9VzaqzQORasnH1b9LZu_-217" vertex="1">
          <mxGeometry x="20" y="390" width="190" height="30" as="geometry" />
        </mxCell>
        <mxCell id="9VzaqzQORasnH1b9LZu_-232" value="employer" style="strokeWidth=1;shadow=0;dashed=0;align=center;html=1;shape=mxgraph.mockup.buttons.button;strokeColor=#666666;mainText=;buttonStyle=round;fontSize=17;fontStyle=0;fillColor=none;whiteSpace=wrap;rounded=0;labelBackgroundColor=none;" parent="9VzaqzQORasnH1b9LZu_-217" vertex="1">
          <mxGeometry x="20" y="270" width="190" height="30" as="geometry" />
        </mxCell>
        <mxCell id="9VzaqzQORasnH1b9LZu_-254" value="Open this select menu" style="html=1;shadow=0;dashed=0;shape=mxgraph.bootstrap.rrect;rSize=5;fillColor=#ffffff;strokeColor=#CED4DA;align=left;spacing=15;fontSize=14;fontColor=#6C767D;" parent="9VzaqzQORasnH1b9LZu_-217" vertex="1">
          <mxGeometry x="660" y="270" width="200" height="40" as="geometry" />
        </mxCell>
        <mxCell id="9VzaqzQORasnH1b9LZu_-255" value="" style="shape=triangle;direction=south;fillColor=#343A40;strokeColor=none;perimeter=none;" parent="9VzaqzQORasnH1b9LZu_-254" vertex="1">
          <mxGeometry x="1" y="0.5" width="7" height="3" relative="1" as="geometry">
            <mxPoint x="-17" y="1" as="offset" />
          </mxGeometry>
        </mxCell>
        <mxCell id="9VzaqzQORasnH1b9LZu_-256" value="" style="shape=triangle;direction=north;fillColor=#343A40;strokeColor=none;perimeter=none;" parent="9VzaqzQORasnH1b9LZu_-254" vertex="1">
          <mxGeometry x="1" y="0.5" width="7" height="3" relative="1" as="geometry">
            <mxPoint x="-17" y="-4" as="offset" />
          </mxGeometry>
        </mxCell>
        <mxCell id="9VzaqzQORasnH1b9LZu_-257" value="&lt;span style=&quot;font-family: Helvetica; font-size: 12px; font-style: normal; font-variant-ligatures: normal; font-variant-caps: normal; font-weight: 400; letter-spacing: normal; orphans: 2; text-align: center; text-indent: 0px; text-transform: none; widows: 2; word-spacing: 0px; -webkit-text-stroke-width: 0px; white-space: normal; text-decoration-thickness: initial; text-decoration-style: initial; text-decoration-color: initial; float: none; display: inline !important;&quot;&gt;&lt;font style=&quot;color: light-dark(rgb(255, 255, 255), rgb(255, 255, 255));&quot;&gt;destination de arriver&amp;nbsp;&lt;/font&gt;&lt;/span&gt;" style="text;whiteSpace=wrap;html=1;" parent="9VzaqzQORasnH1b9LZu_-217" vertex="1">
          <mxGeometry x="690" y="240" width="150" height="40" as="geometry" />
        </mxCell>
        <mxCell id="9VzaqzQORasnH1b9LZu_-304" value="rapports activité +état des vols" style="strokeWidth=1;shadow=0;dashed=0;align=center;html=1;shape=mxgraph.mockup.buttons.button;strokeColor=#666666;mainText=;buttonStyle=round;fontSize=17;fontStyle=0;fillColor=none;whiteSpace=wrap;rounded=0;labelBackgroundColor=none;" parent="9VzaqzQORasnH1b9LZu_-217" vertex="1">
          <mxGeometry x="20" y="450" width="190" height="30" as="geometry" />
        </mxCell>
        <mxCell id="9VzaqzQORasnH1b9LZu_-240" value="" style="shape=table;startSize=0;container=1;collapsible=0;childLayout=tableLayout;fixedRows=1;rowLines=0;fontStyle=0;strokeColor=default;fontSize=16;" parent="1" vertex="1">
          <mxGeometry x="-990" y="1300" width="700" height="410" as="geometry" />
        </mxCell>
        <mxCell id="9VzaqzQORasnH1b9LZu_-241" value="" style="shape=tableRow;horizontal=0;startSize=0;swimlaneHead=0;swimlaneBody=0;top=0;left=0;bottom=0;right=0;collapsible=0;dropTarget=0;fillColor=none;points=[[0,0.5],[1,0.5]];portConstraint=eastwest;strokeColor=inherit;fontSize=16;" parent="9VzaqzQORasnH1b9LZu_-240" vertex="1">
          <mxGeometry width="700" height="30" as="geometry" />
        </mxCell>
        <mxCell id="9VzaqzQORasnH1b9LZu_-242" value="1" style="shape=partialRectangle;html=1;whiteSpace=wrap;connectable=0;fillColor=none;top=0;left=0;bottom=0;right=0;overflow=hidden;pointerEvents=1;strokeColor=inherit;fontSize=16;" parent="9VzaqzQORasnH1b9LZu_-241" vertex="1">
          <mxGeometry width="155" height="30" as="geometry">
            <mxRectangle width="155" height="30" as="alternateBounds" />
          </mxGeometry>
        </mxCell>
        <mxCell id="9VzaqzQORasnH1b9LZu_-243" value="num vols | etat vols |" style="shape=partialRectangle;html=1;whiteSpace=wrap;connectable=0;fillColor=none;top=0;left=0;bottom=0;right=0;align=left;spacingLeft=6;overflow=hidden;strokeColor=inherit;fontSize=16;" parent="9VzaqzQORasnH1b9LZu_-241" vertex="1">
          <mxGeometry x="155" width="545" height="30" as="geometry">
            <mxRectangle width="545" height="30" as="alternateBounds" />
          </mxGeometry>
        </mxCell>
        <mxCell id="9VzaqzQORasnH1b9LZu_-244" value="" style="shape=tableRow;horizontal=0;startSize=0;swimlaneHead=0;swimlaneBody=0;top=0;left=0;bottom=0;right=0;collapsible=0;dropTarget=0;fillColor=none;points=[[0,0.5],[1,0.5]];portConstraint=eastwest;strokeColor=inherit;fontSize=16;" parent="9VzaqzQORasnH1b9LZu_-240" vertex="1">
          <mxGeometry y="30" width="700" height="30" as="geometry" />
        </mxCell>
        <mxCell id="9VzaqzQORasnH1b9LZu_-245" value="2" style="shape=partialRectangle;html=1;whiteSpace=wrap;connectable=0;fillColor=none;top=0;left=0;bottom=0;right=0;overflow=hidden;strokeColor=inherit;fontSize=16;" parent="9VzaqzQORasnH1b9LZu_-244" vertex="1">
          <mxGeometry width="155" height="30" as="geometry">
            <mxRectangle width="155" height="30" as="alternateBounds" />
          </mxGeometry>
        </mxCell>
        <mxCell id="9VzaqzQORasnH1b9LZu_-246" value="Value 2 | ..." style="shape=partialRectangle;html=1;whiteSpace=wrap;connectable=0;fillColor=none;top=0;left=0;bottom=0;right=0;align=left;spacingLeft=6;overflow=hidden;strokeColor=inherit;fontSize=16;" parent="9VzaqzQORasnH1b9LZu_-244" vertex="1">
          <mxGeometry x="155" width="545" height="30" as="geometry">
            <mxRectangle width="545" height="30" as="alternateBounds" />
          </mxGeometry>
        </mxCell>
        <mxCell id="9VzaqzQORasnH1b9LZu_-247" value="" style="shape=tableRow;horizontal=0;startSize=0;swimlaneHead=0;swimlaneBody=0;top=0;left=0;bottom=0;right=0;collapsible=0;dropTarget=0;fillColor=none;points=[[0,0.5],[1,0.5]];portConstraint=eastwest;strokeColor=inherit;fontSize=16;" parent="9VzaqzQORasnH1b9LZu_-240" vertex="1">
          <mxGeometry y="60" width="700" height="30" as="geometry" />
        </mxCell>
        <mxCell id="9VzaqzQORasnH1b9LZu_-248" value="3" style="shape=partialRectangle;html=1;whiteSpace=wrap;connectable=0;fillColor=none;top=0;left=0;bottom=0;right=0;overflow=hidden;strokeColor=inherit;fontSize=16;" parent="9VzaqzQORasnH1b9LZu_-247" vertex="1">
          <mxGeometry width="155" height="30" as="geometry">
            <mxRectangle width="155" height="30" as="alternateBounds" />
          </mxGeometry>
        </mxCell>
        <mxCell id="9VzaqzQORasnH1b9LZu_-249" value="Value 3 | ..." style="shape=partialRectangle;html=1;whiteSpace=wrap;connectable=0;fillColor=none;top=0;left=0;bottom=0;right=0;align=left;spacingLeft=6;overflow=hidden;strokeColor=inherit;fontSize=16;" parent="9VzaqzQORasnH1b9LZu_-247" vertex="1">
          <mxGeometry x="155" width="545" height="30" as="geometry">
            <mxRectangle width="545" height="30" as="alternateBounds" />
          </mxGeometry>
        </mxCell>
        <mxCell id="9VzaqzQORasnH1b9LZu_-250" style="edgeStyle=orthogonalEdgeStyle;rounded=0;orthogonalLoop=1;jettySize=auto;html=1;entryX=1;entryY=0.361;entryDx=0;entryDy=0;entryPerimeter=0;" parent="1" target="9VzaqzQORasnH1b9LZu_-217" edge="1">
          <mxGeometry relative="1" as="geometry">
            <mxPoint x="70" y="475" as="sourcePoint" />
            <Array as="points">
              <mxPoint x="-110" y="475" />
              <mxPoint x="-110" y="1266" />
            </Array>
          </mxGeometry>
        </mxCell>
        <mxCell id="9VzaqzQORasnH1b9LZu_-301" style="edgeStyle=orthogonalEdgeStyle;rounded=0;orthogonalLoop=1;jettySize=auto;html=1;" parent="1" source="9VzaqzQORasnH1b9LZu_-262" target="9VzaqzQORasnH1b9LZu_-266" edge="1">
          <mxGeometry relative="1" as="geometry">
            <Array as="points">
              <mxPoint x="-30" y="535" />
              <mxPoint x="-30" y="920" />
              <mxPoint x="550" y="920" />
            </Array>
          </mxGeometry>
        </mxCell>
        <mxCell id="9VzaqzQORasnH1b9LZu_-262" value="vols en temps réel" style="strokeWidth=1;shadow=0;dashed=0;align=center;html=1;shape=mxgraph.mockup.buttons.button;strokeColor=#666666;mainText=;buttonStyle=round;fontSize=17;fontStyle=0;fillColor=none;whiteSpace=wrap;rounded=0;labelBackgroundColor=none;" parent="1" vertex="1">
          <mxGeometry x="70" y="500" width="190" height="30" as="geometry" />
        </mxCell>
        <mxCell id="9VzaqzQORasnH1b9LZu_-266" value="" style="strokeWidth=1;shadow=0;dashed=0;align=center;html=1;shape=mxgraph.mockup.containers.browserWindow;rSize=0;strokeColor=#666666;mainText=,;recursiveResize=0;rounded=0;labelBackgroundColor=none;fontFamily=Verdana;fontSize=12;movable=1;resizable=1;rotatable=1;deletable=1;editable=1;locked=0;connectable=1;" parent="1" vertex="1">
          <mxGeometry x="25" y="1100" width="1050" height="820" as="geometry" />
        </mxCell>
        <mxCell id="9VzaqzQORasnH1b9LZu_-267" value="Page 5" style="strokeWidth=1;shadow=0;dashed=0;align=center;html=1;shape=mxgraph.mockup.containers.anchor;fontSize=17;fontColor=#666666;align=left;" parent="9VzaqzQORasnH1b9LZu_-266" vertex="1">
          <mxGeometry x="60" y="12" width="110" height="26" as="geometry" />
        </mxCell>
        <mxCell id="9VzaqzQORasnH1b9LZu_-268" value="https://www.default.com" style="strokeWidth=1;shadow=0;dashed=0;align=center;html=1;shape=mxgraph.mockup.containers.anchor;rSize=0;fontSize=17;fontColor=#666666;align=left;" parent="9VzaqzQORasnH1b9LZu_-266" vertex="1">
          <mxGeometry x="130" y="60" width="250" height="26" as="geometry" />
        </mxCell>
        <mxCell id="9VzaqzQORasnH1b9LZu_-269" value="Search" style="strokeWidth=1;shadow=0;dashed=0;align=center;html=1;shape=mxgraph.mockup.forms.searchBox;strokeColor=#999999;mainText=;strokeColor2=#008cff;fontColor=#666666;fontSize=17;align=left;spacingLeft=3;rounded=0;labelBackgroundColor=none;" parent="9VzaqzQORasnH1b9LZu_-266" vertex="1">
          <mxGeometry x="880" y="280" width="150" height="20" as="geometry" />
        </mxCell>
        <mxCell id="9VzaqzQORasnH1b9LZu_-270" value="Open this select menu" style="html=1;shadow=0;dashed=0;shape=mxgraph.bootstrap.rrect;rSize=5;fillColor=#ffffff;strokeColor=#CED4DA;align=left;spacing=15;fontSize=14;fontColor=#6C767D;" parent="9VzaqzQORasnH1b9LZu_-266" vertex="1">
          <mxGeometry x="240" y="270" width="200" height="40" as="geometry" />
        </mxCell>
        <mxCell id="9VzaqzQORasnH1b9LZu_-271" value="" style="shape=triangle;direction=south;fillColor=#343A40;strokeColor=none;perimeter=none;" parent="9VzaqzQORasnH1b9LZu_-270" vertex="1">
          <mxGeometry x="1" y="0.5" width="7" height="3" relative="1" as="geometry">
            <mxPoint x="-17" y="1" as="offset" />
          </mxGeometry>
        </mxCell>
        <mxCell id="9VzaqzQORasnH1b9LZu_-272" value="" style="shape=triangle;direction=north;fillColor=#343A40;strokeColor=none;perimeter=none;" parent="9VzaqzQORasnH1b9LZu_-270" vertex="1">
          <mxGeometry x="1" y="0.5" width="7" height="3" relative="1" as="geometry">
            <mxPoint x="-17" y="-4" as="offset" />
          </mxGeometry>
        </mxCell>
        <mxCell id="9VzaqzQORasnH1b9LZu_-273" value="Open this select menu" style="html=1;shadow=0;dashed=0;shape=mxgraph.bootstrap.rrect;rSize=5;fillColor=#ffffff;strokeColor=#CED4DA;align=left;spacing=15;fontSize=14;fontColor=#6C767D;" parent="9VzaqzQORasnH1b9LZu_-266" vertex="1">
          <mxGeometry x="450" y="270" width="200" height="40" as="geometry" />
        </mxCell>
        <mxCell id="9VzaqzQORasnH1b9LZu_-274" value="" style="shape=triangle;direction=south;fillColor=#343A40;strokeColor=none;perimeter=none;" parent="9VzaqzQORasnH1b9LZu_-273" vertex="1">
          <mxGeometry x="1" y="0.5" width="7" height="3" relative="1" as="geometry">
            <mxPoint x="-17" y="1" as="offset" />
          </mxGeometry>
        </mxCell>
        <mxCell id="9VzaqzQORasnH1b9LZu_-275" value="" style="shape=triangle;direction=north;fillColor=#343A40;strokeColor=none;perimeter=none;" parent="9VzaqzQORasnH1b9LZu_-273" vertex="1">
          <mxGeometry x="1" y="0.5" width="7" height="3" relative="1" as="geometry">
            <mxPoint x="-17" y="-4" as="offset" />
          </mxGeometry>
        </mxCell>
        <mxCell id="9VzaqzQORasnH1b9LZu_-276" value="marque" style="text;strokeColor=none;fillColor=none;html=1;fontSize=24;fontStyle=1;verticalAlign=middle;align=center;" parent="9VzaqzQORasnH1b9LZu_-266" vertex="1">
          <mxGeometry x="40" y="160" width="100" height="40" as="geometry" />
        </mxCell>
        <mxCell id="9VzaqzQORasnH1b9LZu_-277" value="infrastructure" style="strokeWidth=1;shadow=0;dashed=0;align=center;html=1;shape=mxgraph.mockup.buttons.button;strokeColor=#666666;mainText=;buttonStyle=round;fontSize=17;fontStyle=0;fillColor=none;whiteSpace=wrap;rounded=0;labelBackgroundColor=none;" parent="9VzaqzQORasnH1b9LZu_-266" vertex="1">
          <mxGeometry x="20" y="330" width="190" height="30" as="geometry" />
        </mxCell>
        <mxCell id="9VzaqzQORasnH1b9LZu_-278" value="destination de depart&amp;nbsp;" style="text;html=1;align=center;verticalAlign=middle;whiteSpace=wrap;rounded=0;" parent="9VzaqzQORasnH1b9LZu_-266" vertex="1">
          <mxGeometry x="470" y="240" width="160" height="30" as="geometry" />
        </mxCell>
        <mxCell id="9VzaqzQORasnH1b9LZu_-279" value="numéro passager" style="text;html=1;align=center;verticalAlign=middle;resizable=0;points=[];autosize=1;strokeColor=none;fillColor=none;" parent="9VzaqzQORasnH1b9LZu_-266" vertex="1">
          <mxGeometry x="280" y="240" width="120" height="30" as="geometry" />
        </mxCell>
        <mxCell id="9VzaqzQORasnH1b9LZu_-280" value="rapports activité" style="strokeWidth=1;shadow=0;dashed=0;align=center;html=1;shape=mxgraph.mockup.buttons.button;strokeColor=#666666;mainText=;buttonStyle=round;fontSize=17;fontStyle=0;fillColor=none;whiteSpace=wrap;rounded=0;labelBackgroundColor=none;" parent="9VzaqzQORasnH1b9LZu_-266" vertex="1">
          <mxGeometry x="20" y="390" width="190" height="30" as="geometry" />
        </mxCell>
        <mxCell id="9VzaqzQORasnH1b9LZu_-283" value="employer" style="strokeWidth=1;shadow=0;dashed=0;align=center;html=1;shape=mxgraph.mockup.buttons.button;strokeColor=#666666;mainText=;buttonStyle=round;fontSize=17;fontStyle=0;fillColor=none;whiteSpace=wrap;rounded=0;labelBackgroundColor=none;" parent="9VzaqzQORasnH1b9LZu_-266" vertex="1">
          <mxGeometry x="20" y="270" width="190" height="30" as="geometry" />
        </mxCell>
        <mxCell id="9VzaqzQORasnH1b9LZu_-284" value="Open this select menu" style="html=1;shadow=0;dashed=0;shape=mxgraph.bootstrap.rrect;rSize=5;fillColor=#ffffff;strokeColor=#CED4DA;align=left;spacing=15;fontSize=14;fontColor=#6C767D;" parent="9VzaqzQORasnH1b9LZu_-266" vertex="1">
          <mxGeometry x="660" y="270" width="200" height="40" as="geometry" />
        </mxCell>
        <mxCell id="9VzaqzQORasnH1b9LZu_-285" value="" style="shape=triangle;direction=south;fillColor=#343A40;strokeColor=none;perimeter=none;" parent="9VzaqzQORasnH1b9LZu_-284" vertex="1">
          <mxGeometry x="1" y="0.5" width="7" height="3" relative="1" as="geometry">
            <mxPoint x="-17" y="1" as="offset" />
          </mxGeometry>
        </mxCell>
        <mxCell id="9VzaqzQORasnH1b9LZu_-286" value="" style="shape=triangle;direction=north;fillColor=#343A40;strokeColor=none;perimeter=none;" parent="9VzaqzQORasnH1b9LZu_-284" vertex="1">
          <mxGeometry x="1" y="0.5" width="7" height="3" relative="1" as="geometry">
            <mxPoint x="-17" y="-4" as="offset" />
          </mxGeometry>
        </mxCell>
        <mxCell id="9VzaqzQORasnH1b9LZu_-287" value="&lt;span style=&quot;font-family: Helvetica; font-size: 12px; font-style: normal; font-variant-ligatures: normal; font-variant-caps: normal; font-weight: 400; letter-spacing: normal; orphans: 2; text-align: center; text-indent: 0px; text-transform: none; widows: 2; word-spacing: 0px; -webkit-text-stroke-width: 0px; white-space: normal; text-decoration-thickness: initial; text-decoration-style: initial; text-decoration-color: initial; float: none; display: inline !important;&quot;&gt;&lt;font style=&quot;color: light-dark(rgb(255, 255, 255), rgb(255, 255, 255));&quot;&gt;destination de arriver&amp;nbsp;&lt;/font&gt;&lt;/span&gt;" style="text;whiteSpace=wrap;html=1;" parent="9VzaqzQORasnH1b9LZu_-266" vertex="1">
          <mxGeometry x="690" y="240" width="150" height="40" as="geometry" />
        </mxCell>
        <mxCell id="9VzaqzQORasnH1b9LZu_-288" value="suivi des passagers" style="strokeWidth=1;shadow=0;dashed=0;align=center;html=1;shape=mxgraph.mockup.buttons.button;strokeColor=#666666;mainText=;buttonStyle=round;fontSize=17;fontStyle=0;fillColor=none;whiteSpace=wrap;rounded=0;labelBackgroundColor=none;" parent="9VzaqzQORasnH1b9LZu_-266" vertex="1">
          <mxGeometry x="20" y="510" width="190" height="30" as="geometry" />
        </mxCell>
        <mxCell id="9VzaqzQORasnH1b9LZu_-299" value="" style="shape=mxgraph.networks2.icon;aspect=fixed;fillColor=#EDEDED;strokeColor=#000000;gradientColor=#5B6163;network2IconShadow=1;network2bgFillColor=none;network2Icon=mxgraph.networks2.globe;network2IconW=1;network2IconH=1;" parent="9VzaqzQORasnH1b9LZu_-266" vertex="1">
          <mxGeometry x="345" y="340" width="430" height="430" as="geometry" />
        </mxCell>
        <mxCell id="9VzaqzQORasnH1b9LZu_-300" value="" style="shape=mxgraph.signs.transportation.airplane_3;html=1;pointerEvents=1;fillColor=#000000;strokeColor=none;verticalLabelPosition=bottom;verticalAlign=top;align=center;rotation=-90;" parent="9VzaqzQORasnH1b9LZu_-266" vertex="1">
          <mxGeometry x="595" y="400" width="145" height="214" as="geometry" />
        </mxCell>
        <mxCell id="9VzaqzQORasnH1b9LZu_-303" value="rapports activité +état des vols" style="strokeWidth=1;shadow=0;dashed=0;align=center;html=1;shape=mxgraph.mockup.buttons.button;strokeColor=#666666;mainText=;buttonStyle=round;fontSize=17;fontStyle=0;fillColor=none;whiteSpace=wrap;rounded=0;labelBackgroundColor=none;" parent="9VzaqzQORasnH1b9LZu_-266" vertex="1">
          <mxGeometry x="20" y="450" width="190" height="30" as="geometry" />
        </mxCell>
        <mxCell id="9VzaqzQORasnH1b9LZu_-330" value="vols en temps réel" style="strokeWidth=1;shadow=0;dashed=0;align=center;html=1;shape=mxgraph.mockup.buttons.button;strokeColor=#666666;mainText=;buttonStyle=round;fontSize=17;fontStyle=0;fillColor=none;whiteSpace=wrap;rounded=0;labelBackgroundColor=none;" parent="1" vertex="1">
          <mxGeometry x="-1200" y="1480" width="190" height="30" as="geometry" />
        </mxCell>
      </root>
    </mxGraphModel>
  </diagram>
</mxfile>
